<?xml version="1.0" encoding="UTF-8" standalone="no"?>
<!DOCTYPE svg PUBLIC "-//W3C//DTD SVG 1.1//EN"
 "http://www.w3.org/Graphics/SVG/1.1/DTD/svg11.dtd">
<!-- Generated by graphviz version 7.1.0 (20230121.1956)
 -->
<!-- Title: G Pages: 1 -->
<svg width="320pt" height="192pt"
 viewBox="0.00 0.00 319.50 192.00" xmlns="http://www.w3.org/2000/svg" xmlns:xlink="http://www.w3.org/1999/xlink">
<g id="graph0" class="graph" transform="scale(1 1) rotate(0) translate(4 188)">
<title>G</title>
<polygon fill="white" stroke="none" points="-4,4 -4,-188 315.5,-188 315.5,4 -4,4"/>
<!-- nodeInicio -->
<g id="node1" class="node">
<title>nodeInicio</title>
<polygon fill="none" stroke="black" points="210,-184 126,-184 126,-148 210,-148 210,-184"/>
<text text-anchor="middle" x="168" y="-162.3" font-family="Times New Roman,serif" font-size="14.00">&lt; INICIO &gt;</text>
</g>
<!-- instruccion_1_5_ -->
<g id="node2" class="node">
<title>instruccion_1_5_</title>
<polygon fill="none" stroke="black" points="216,-112 120,-112 120,-74 216,-74 216,-112"/>
<text text-anchor="middle" x="168" y="-96.8" font-family="Times New Roman,serif" font-size="14.00">&lt;Instruccion&gt;</text>
<text text-anchor="middle" x="168" y="-81.8" font-family="Times New Roman,serif" font-size="14.00">Declaracion</text>
</g>
<!-- nodeInicio&#45;&gt;instruccion_1_5_ -->
<g id="edge1" class="edge">
<title>nodeInicio&#45;&gt;instruccion_1_5_</title>
<path fill="none" stroke="black" d="M168,-147.81C168,-140.59 168,-131.97 168,-123.77"/>
<polygon fill="black" stroke="black" points="171.5,-123.78 168,-113.78 164.5,-123.78 171.5,-123.78"/>
</g>
<!-- instruccion_1_5_2 -->
<g id="node3" class="node">
<title>instruccion_1_5_2</title>
<polygon fill="none" stroke="black" points="172,-38 0,-38 0,0 172,0 172,-38"/>
<text text-anchor="middle" x="86" y="-22.8" font-family="Times New Roman,serif" font-size="14.00">&lt;Nombre&gt;</text>
<text text-anchor="middle" x="86" y="-7.8" font-family="Times New Roman,serif" font-size="14.00">funcionesespecialesynativas</text>
</g>
<!-- instruccion_1_5_&#45;&gt;instruccion_1_5_2 -->
<g id="edge3" class="edge">
<title>instruccion_1_5_&#45;&gt;instruccion_1_5_2</title>
<path fill="none" stroke="black" d="M147.31,-73.83C137.67,-65.37 126.03,-55.15 115.49,-45.9"/>
<polygon fill="black" stroke="black" points="117.93,-43.38 108.11,-39.41 113.31,-48.64 117.93,-43.38"/>
</g>
<!-- instruccion_1_5_1 -->
<g id="node4" class="node">
<title>instruccion_1_5_1</title>
<polygon fill="none" stroke="black" points="311.5,-37 190.5,-37 190.5,-1 311.5,-1 311.5,-37"/>
<text text-anchor="middle" x="251" y="-15.3" font-family="Times New Roman,serif" font-size="14.00">instruccion_1_5_1</text>
</g>
<!-- instruccion_1_5_&#45;&gt;instruccion_1_5_1 -->
<g id="edge2" class="edge">
<title>instruccion_1_5_&#45;&gt;instruccion_1_5_1</title>
<path fill="none" stroke="black" d="M188.94,-73.83C199.1,-65.02 211.45,-54.31 222.45,-44.76"/>
<polygon fill="black" stroke="black" points="224.52,-47.61 229.78,-38.41 219.93,-42.32 224.52,-47.61"/>
</g>
</g>
</svg>
