<?xml version="1.0" encoding="UTF-8" standalone="no"?>
<!DOCTYPE svg PUBLIC "-//W3C//DTD SVG 1.1//EN"
 "http://www.w3.org/Graphics/SVG/1.1/DTD/svg11.dtd">
<!-- Generated by graphviz version 7.1.0 (20230121.1956)
 -->
<!-- Title: G Pages: 1 -->
<svg width="418pt" height="266pt"
 viewBox="0.00 0.00 417.50 266.00" xmlns="http://www.w3.org/2000/svg" xmlns:xlink="http://www.w3.org/1999/xlink">
<g id="graph0" class="graph" transform="scale(1 1) rotate(0) translate(4 262)">
<title>G</title>
<polygon fill="white" stroke="none" points="-4,4 -4,-262 413.5,-262 413.5,4 -4,4"/>
<!-- nodeInicio -->
<g id="node1" class="node">
<title>nodeInicio</title>
<polygon fill="none" stroke="black" points="199.5,-258 115.5,-258 115.5,-222 199.5,-222 199.5,-258"/>
<text text-anchor="middle" x="157.5" y="-236.3" font-family="Times New Roman,serif" font-size="14.00">&lt; INICIO &gt;</text>
</g>
<!-- instruccion_6_5_ -->
<g id="node2" class="node">
<title>instruccion_6_5_</title>
<polygon fill="none" stroke="black" points="205.5,-186 109.5,-186 109.5,-148 205.5,-148 205.5,-186"/>
<text text-anchor="middle" x="157.5" y="-170.8" font-family="Times New Roman,serif" font-size="14.00">&lt;Instruccion&gt;</text>
<text text-anchor="middle" x="157.5" y="-155.8" font-family="Times New Roman,serif" font-size="14.00">Declaracion</text>
</g>
<!-- nodeInicio&#45;&gt;instruccion_6_5_ -->
<g id="edge1" class="edge">
<title>nodeInicio&#45;&gt;instruccion_6_5_</title>
<path fill="none" stroke="black" d="M157.5,-221.81C157.5,-214.59 157.5,-205.97 157.5,-197.77"/>
<polygon fill="black" stroke="black" points="161,-197.78 157.5,-187.78 154,-197.78 161,-197.78"/>
</g>
<!-- instruccion_6_5_2 -->
<g id="node3" class="node">
<title>instruccion_6_5_2</title>
<polygon fill="none" stroke="black" points="79,-112 0,-112 0,-74 79,-74 79,-112"/>
<text text-anchor="middle" x="39.5" y="-96.8" font-family="Times New Roman,serif" font-size="14.00">&lt;Nombre&gt;</text>
<text text-anchor="middle" x="39.5" y="-81.8" font-family="Times New Roman,serif" font-size="14.00">metodo1</text>
</g>
<!-- instruccion_6_5_&#45;&gt;instruccion_6_5_2 -->
<g id="edge3" class="edge">
<title>instruccion_6_5_&#45;&gt;instruccion_6_5_2</title>
<path fill="none" stroke="black" d="M127.42,-147.65C112.72,-138.67 94.83,-127.76 79.04,-118.13"/>
<polygon fill="black" stroke="black" points="81.18,-115.33 70.82,-113.11 77.53,-121.31 81.18,-115.33"/>
</g>
<!-- instruccion_6_5_1 -->
<g id="node4" class="node">
<title>instruccion_6_5_1</title>
<polygon fill="none" stroke="black" points="218,-111 97,-111 97,-75 218,-75 218,-111"/>
<text text-anchor="middle" x="157.5" y="-89.3" font-family="Times New Roman,serif" font-size="14.00">instruccion_6_5_1</text>
</g>
<!-- instruccion_6_5_&#45;&gt;instruccion_6_5_1 -->
<g id="edge2" class="edge">
<title>instruccion_6_5_&#45;&gt;instruccion_6_5_1</title>
<path fill="none" stroke="black" d="M157.5,-147.83C157.5,-140.24 157.5,-131.24 157.5,-122.79"/>
<polygon fill="black" stroke="black" points="161,-122.93 157.5,-112.93 154,-122.93 161,-122.93"/>
</g>
<!-- instruccion_10_5_ -->
<g id="node5" class="node">
<title>instruccion_10_5_</title>
<polygon fill="none" stroke="black" points="332.5,-112 236.5,-112 236.5,-74 332.5,-74 332.5,-112"/>
<text text-anchor="middle" x="284.5" y="-96.8" font-family="Times New Roman,serif" font-size="14.00">&lt;Instruccion&gt;</text>
<text text-anchor="middle" x="284.5" y="-81.8" font-family="Times New Roman,serif" font-size="14.00">Declaracion</text>
</g>
<!-- instruccion_6_5_&#45;&gt;instruccion_10_5_ -->
<g id="edge4" class="edge">
<title>instruccion_6_5_&#45;&gt;instruccion_10_5_</title>
<path fill="none" stroke="black" d="M189.88,-147.65C205.85,-138.59 225.31,-127.56 242.42,-117.85"/>
<polygon fill="black" stroke="black" points="243.89,-121.04 250.87,-113.07 240.44,-114.96 243.89,-121.04"/>
</g>
<!-- instruccion_10_5_2 -->
<g id="node6" class="node">
<title>instruccion_10_5_2</title>
<polygon fill="none" stroke="black" points="263,-38 184,-38 184,0 263,0 263,-38"/>
<text text-anchor="middle" x="223.5" y="-22.8" font-family="Times New Roman,serif" font-size="14.00">&lt;Nombre&gt;</text>
<text text-anchor="middle" x="223.5" y="-7.8" font-family="Times New Roman,serif" font-size="14.00">figura1</text>
</g>
<!-- instruccion_10_5_&#45;&gt;instruccion_10_5_2 -->
<g id="edge6" class="edge">
<title>instruccion_10_5_&#45;&gt;instruccion_10_5_2</title>
<path fill="none" stroke="black" d="M269.11,-73.83C262.22,-65.71 253.97,-55.96 246.38,-47.01"/>
<polygon fill="black" stroke="black" points="249.21,-44.94 240.08,-39.57 243.87,-49.46 249.21,-44.94"/>
</g>
<!-- instruccion_10_5_1 -->
<g id="node7" class="node">
<title>instruccion_10_5_1</title>
<polygon fill="none" stroke="black" points="409.5,-37 281.5,-37 281.5,-1 409.5,-1 409.5,-37"/>
<text text-anchor="middle" x="345.5" y="-15.3" font-family="Times New Roman,serif" font-size="14.00">instruccion_10_5_1</text>
</g>
<!-- instruccion_10_5_&#45;&gt;instruccion_10_5_1 -->
<g id="edge5" class="edge">
<title>instruccion_10_5_&#45;&gt;instruccion_10_5_1</title>
<path fill="none" stroke="black" d="M299.89,-73.83C306.99,-65.46 315.54,-55.36 323.31,-46.19"/>
<polygon fill="black" stroke="black" points="325.97,-48.46 329.76,-38.57 320.63,-43.94 325.97,-48.46"/>
</g>
</g>
</svg>
