<?xml version="1.0" encoding="UTF-8" standalone="no"?>
<!DOCTYPE svg PUBLIC "-//W3C//DTD SVG 1.1//EN"
 "http://www.w3.org/Graphics/SVG/1.1/DTD/svg11.dtd">
<!-- Generated by graphviz version 7.1.0 (20230121.1956)
 -->
<!-- Title: G Pages: 1 -->
<svg width="538pt" height="414pt"
 viewBox="0.00 0.00 537.50 414.00" xmlns="http://www.w3.org/2000/svg" xmlns:xlink="http://www.w3.org/1999/xlink">
<g id="graph0" class="graph" transform="scale(1 1) rotate(0) translate(4 410)">
<title>G</title>
<polygon fill="white" stroke="none" points="-4,4 -4,-410 533.5,-410 533.5,4 -4,4"/>
<!-- nodeInicio -->
<g id="node1" class="node">
<title>nodeInicio</title>
<polygon fill="none" stroke="black" points="203.5,-406 119.5,-406 119.5,-370 203.5,-370 203.5,-406"/>
<text text-anchor="middle" x="161.5" y="-384.3" font-family="Times New Roman,serif" font-size="14.00">&lt; INICIO &gt;</text>
</g>
<!-- instruccion_1_10_ -->
<g id="node2" class="node">
<title>instruccion_1_10_</title>
<polygon fill="none" stroke="black" points="209.5,-334 113.5,-334 113.5,-296 209.5,-296 209.5,-334"/>
<text text-anchor="middle" x="161.5" y="-318.8" font-family="Times New Roman,serif" font-size="14.00">&lt;Instruccion&gt;</text>
<text text-anchor="middle" x="161.5" y="-303.8" font-family="Times New Roman,serif" font-size="14.00">Declaracion</text>
</g>
<!-- nodeInicio&#45;&gt;instruccion_1_10_ -->
<g id="edge1" class="edge">
<title>nodeInicio&#45;&gt;instruccion_1_10_</title>
<path fill="none" stroke="black" d="M161.5,-369.81C161.5,-362.59 161.5,-353.97 161.5,-345.77"/>
<polygon fill="black" stroke="black" points="165,-345.78 161.5,-335.78 158,-345.78 165,-345.78"/>
</g>
<!-- instruccion_1_10_2 -->
<g id="node3" class="node">
<title>instruccion_1_10_2</title>
<polygon fill="none" stroke="black" points="79,-260 0,-260 0,-222 79,-222 79,-260"/>
<text text-anchor="middle" x="39.5" y="-244.8" font-family="Times New Roman,serif" font-size="14.00">&lt;Nombre&gt;</text>
<text text-anchor="middle" x="39.5" y="-229.8" font-family="Times New Roman,serif" font-size="14.00">vector2</text>
</g>
<!-- instruccion_1_10_&#45;&gt;instruccion_1_10_2 -->
<g id="edge3" class="edge">
<title>instruccion_1_10_&#45;&gt;instruccion_1_10_2</title>
<path fill="none" stroke="black" d="M130.4,-295.65C115.2,-286.67 96.71,-275.76 80.38,-266.13"/>
<polygon fill="black" stroke="black" points="82.24,-263.16 71.85,-261.09 78.68,-269.19 82.24,-263.16"/>
</g>
<!-- instruccion_1_10_1 -->
<g id="node4" class="node">
<title>instruccion_1_10_1</title>
<polygon fill="none" stroke="black" points="225.5,-259 97.5,-259 97.5,-223 225.5,-223 225.5,-259"/>
<text text-anchor="middle" x="161.5" y="-237.3" font-family="Times New Roman,serif" font-size="14.00">instruccion_1_10_1</text>
</g>
<!-- instruccion_1_10_&#45;&gt;instruccion_1_10_1 -->
<g id="edge2" class="edge">
<title>instruccion_1_10_&#45;&gt;instruccion_1_10_1</title>
<path fill="none" stroke="black" d="M161.5,-295.83C161.5,-288.24 161.5,-279.24 161.5,-270.79"/>
<polygon fill="black" stroke="black" points="165,-270.93 161.5,-260.93 158,-270.93 165,-270.93"/>
</g>
<!-- instruccion_2_7_ -->
<g id="node5" class="node">
<title>instruccion_2_7_</title>
<polygon fill="none" stroke="black" points="339.5,-260 243.5,-260 243.5,-222 339.5,-222 339.5,-260"/>
<text text-anchor="middle" x="291.5" y="-244.8" font-family="Times New Roman,serif" font-size="14.00">&lt;Instruccion&gt;</text>
<text text-anchor="middle" x="291.5" y="-229.8" font-family="Times New Roman,serif" font-size="14.00">Declaracion</text>
</g>
<!-- instruccion_1_10_&#45;&gt;instruccion_2_7_ -->
<g id="edge4" class="edge">
<title>instruccion_1_10_&#45;&gt;instruccion_2_7_</title>
<path fill="none" stroke="black" d="M194.64,-295.65C210.99,-286.59 230.91,-275.56 248.43,-265.85"/>
<polygon fill="black" stroke="black" points="250.04,-268.96 257.1,-261.05 246.65,-262.84 250.04,-268.96"/>
</g>
<!-- instruccion_2_7_2 -->
<g id="node6" class="node">
<title>instruccion_2_7_2</title>
<polygon fill="none" stroke="black" points="212.5,-186 118.5,-186 118.5,-148 212.5,-148 212.5,-186"/>
<text text-anchor="middle" x="165.5" y="-170.8" font-family="Times New Roman,serif" font-size="14.00">&lt;Nombre&gt;</text>
<text text-anchor="middle" x="165.5" y="-155.8" font-family="Times New Roman,serif" font-size="14.00">vectornumero</text>
</g>
<!-- instruccion_2_7_&#45;&gt;instruccion_2_7_2 -->
<g id="edge6" class="edge">
<title>instruccion_2_7_&#45;&gt;instruccion_2_7_2</title>
<path fill="none" stroke="black" d="M259.38,-221.65C243.53,-212.59 224.22,-201.56 207.25,-191.85"/>
<polygon fill="black" stroke="black" points="209.3,-188.99 198.88,-187.07 205.82,-195.07 209.3,-188.99"/>
</g>
<!-- instruccion_2_7_1 -->
<g id="node7" class="node">
<title>instruccion_2_7_1</title>
<polygon fill="none" stroke="black" points="352,-185 231,-185 231,-149 352,-149 352,-185"/>
<text text-anchor="middle" x="291.5" y="-163.3" font-family="Times New Roman,serif" font-size="14.00">instruccion_2_7_1</text>
</g>
<!-- instruccion_2_7_&#45;&gt;instruccion_2_7_1 -->
<g id="edge5" class="edge">
<title>instruccion_2_7_&#45;&gt;instruccion_2_7_1</title>
<path fill="none" stroke="black" d="M291.5,-221.83C291.5,-214.24 291.5,-205.24 291.5,-196.79"/>
<polygon fill="black" stroke="black" points="295,-196.93 291.5,-186.93 288,-196.93 295,-196.93"/>
</g>
<!-- instruccion_3_0_ -->
<g id="node8" class="node">
<title>instruccion_3_0_</title>
<polygon fill="none" stroke="black" points="466.5,-186 370.5,-186 370.5,-148 466.5,-148 466.5,-186"/>
<text text-anchor="middle" x="418.5" y="-170.8" font-family="Times New Roman,serif" font-size="14.00">&lt;Instruccion&gt;</text>
<text text-anchor="middle" x="418.5" y="-155.8" font-family="Times New Roman,serif" font-size="14.00">Asignacion</text>
</g>
<!-- instruccion_2_7_&#45;&gt;instruccion_3_0_ -->
<g id="edge7" class="edge">
<title>instruccion_2_7_&#45;&gt;instruccion_3_0_</title>
<path fill="none" stroke="black" d="M323.88,-221.65C339.85,-212.59 359.31,-201.56 376.42,-191.85"/>
<polygon fill="black" stroke="black" points="377.89,-195.04 384.87,-187.07 374.44,-188.96 377.89,-195.04"/>
</g>
<!-- instruccion_3_0_1 -->
<g id="node9" class="node">
<title>instruccion_3_0_1</title>
<polygon fill="none" stroke="black" points="411.5,-112 307.5,-112 307.5,-74 411.5,-74 411.5,-112"/>
<text text-anchor="middle" x="359.5" y="-96.8" font-family="Times New Roman,serif" font-size="14.00">&lt;Identificador&gt;</text>
<text text-anchor="middle" x="359.5" y="-81.8" font-family="Times New Roman,serif" font-size="14.00">{vector2}</text>
</g>
<!-- instruccion_3_0_&#45;&gt;instruccion_3_0_1 -->
<g id="edge8" class="edge">
<title>instruccion_3_0_&#45;&gt;instruccion_3_0_1</title>
<path fill="none" stroke="black" d="M403.61,-147.83C397.02,-139.79 389.14,-130.17 381.86,-121.29"/>
<polygon fill="black" stroke="black" points="384.59,-119.1 375.55,-113.58 379.18,-123.54 384.59,-119.1"/>
</g>
<!-- instruccion_4_0_ -->
<g id="node10" class="node">
<title>instruccion_4_0_</title>
<polygon fill="none" stroke="black" points="525.5,-112 429.5,-112 429.5,-74 525.5,-74 525.5,-112"/>
<text text-anchor="middle" x="477.5" y="-96.8" font-family="Times New Roman,serif" font-size="14.00">&lt;Instruccion&gt;</text>
<text text-anchor="middle" x="477.5" y="-81.8" font-family="Times New Roman,serif" font-size="14.00">Asignacion</text>
</g>
<!-- instruccion_3_0_&#45;&gt;instruccion_4_0_ -->
<g id="edge9" class="edge">
<title>instruccion_3_0_&#45;&gt;instruccion_4_0_</title>
<path fill="none" stroke="black" d="M433.39,-147.83C439.98,-139.79 447.86,-130.17 455.14,-121.29"/>
<polygon fill="black" stroke="black" points="457.82,-123.54 461.45,-113.58 452.41,-119.1 457.82,-123.54"/>
</g>
<!-- instruccion_4_0_1 -->
<g id="node11" class="node">
<title>instruccion_4_0_1</title>
<polygon fill="none" stroke="black" points="529.5,-38 425.5,-38 425.5,0 529.5,0 529.5,-38"/>
<text text-anchor="middle" x="477.5" y="-22.8" font-family="Times New Roman,serif" font-size="14.00">&lt;Identificador&gt;</text>
<text text-anchor="middle" x="477.5" y="-7.8" font-family="Times New Roman,serif" font-size="14.00">{vector2}</text>
</g>
<!-- instruccion_4_0_&#45;&gt;instruccion_4_0_1 -->
<g id="edge10" class="edge">
<title>instruccion_4_0_&#45;&gt;instruccion_4_0_1</title>
<path fill="none" stroke="black" d="M477.5,-73.83C477.5,-66.55 477.5,-57.98 477.5,-49.83"/>
<polygon fill="black" stroke="black" points="481,-49.93 477.5,-39.93 474,-49.93 481,-49.93"/>
</g>
</g>
</svg>
