<?xml version="1.0" encoding="UTF-8" standalone="no"?>
<!DOCTYPE svg PUBLIC "-//W3C//DTD SVG 1.1//EN"
 "http://www.w3.org/Graphics/SVG/1.1/DTD/svg11.dtd">
<!-- Generated by graphviz version 7.1.0 (20230121.1956)
 -->
<!-- Title: G Pages: 1 -->
<svg width="226pt" height="192pt"
 viewBox="0.00 0.00 226.00 192.00" xmlns="http://www.w3.org/2000/svg" xmlns:xlink="http://www.w3.org/1999/xlink">
<g id="graph0" class="graph" transform="scale(1 1) rotate(0) translate(4 188)">
<title>G</title>
<polygon fill="white" stroke="none" points="-4,4 -4,-188 222,-188 222,4 -4,4"/>
<!-- nodeInicio -->
<g id="node1" class="node">
<title>nodeInicio</title>
<polygon fill="none" stroke="black" points="140.5,-184 56.5,-184 56.5,-148 140.5,-148 140.5,-184"/>
<text text-anchor="middle" x="98.5" y="-162.3" font-family="Times New Roman,serif" font-size="14.00">&lt; INICIO &gt;</text>
</g>
<!-- instruccion_1_4_ -->
<g id="node2" class="node">
<title>instruccion_1_4_</title>
<polygon fill="none" stroke="black" points="146.5,-112 50.5,-112 50.5,-74 146.5,-74 146.5,-112"/>
<text text-anchor="middle" x="98.5" y="-96.8" font-family="Times New Roman,serif" font-size="14.00">&lt;Instruccion&gt;</text>
<text text-anchor="middle" x="98.5" y="-81.8" font-family="Times New Roman,serif" font-size="14.00">Declaracion</text>
</g>
<!-- nodeInicio&#45;&gt;instruccion_1_4_ -->
<g id="edge1" class="edge">
<title>nodeInicio&#45;&gt;instruccion_1_4_</title>
<path fill="none" stroke="black" d="M98.5,-147.81C98.5,-140.59 98.5,-131.97 98.5,-123.77"/>
<polygon fill="black" stroke="black" points="102,-123.78 98.5,-113.78 95,-123.78 102,-123.78"/>
</g>
<!-- instruccion_1_4_2 -->
<g id="node3" class="node">
<title>instruccion_1_4_2</title>
<polygon fill="none" stroke="black" points="79,-38 0,-38 0,0 79,0 79,-38"/>
<text text-anchor="middle" x="39.5" y="-22.8" font-family="Times New Roman,serif" font-size="14.00">&lt;Nombre&gt;</text>
<text text-anchor="middle" x="39.5" y="-7.8" font-family="Times New Roman,serif" font-size="14.00">cua</text>
</g>
<!-- instruccion_1_4_&#45;&gt;instruccion_1_4_2 -->
<g id="edge3" class="edge">
<title>instruccion_1_4_&#45;&gt;instruccion_1_4_2</title>
<path fill="none" stroke="black" d="M83.61,-73.83C77.02,-65.79 69.14,-56.17 61.86,-47.29"/>
<polygon fill="black" stroke="black" points="64.59,-45.1 55.55,-39.58 59.18,-49.54 64.59,-45.1"/>
</g>
<!-- instruccion_1_4_1 -->
<g id="node4" class="node">
<title>instruccion_1_4_1</title>
<polygon fill="none" stroke="black" points="218,-37 97,-37 97,-1 218,-1 218,-37"/>
<text text-anchor="middle" x="157.5" y="-15.3" font-family="Times New Roman,serif" font-size="14.00">instruccion_1_4_1</text>
</g>
<!-- instruccion_1_4_&#45;&gt;instruccion_1_4_1 -->
<g id="edge2" class="edge">
<title>instruccion_1_4_&#45;&gt;instruccion_1_4_1</title>
<path fill="none" stroke="black" d="M113.39,-73.83C120.25,-65.46 128.52,-55.36 136.04,-46.19"/>
<polygon fill="black" stroke="black" points="138.64,-48.54 142.27,-38.59 133.22,-44.1 138.64,-48.54"/>
</g>
</g>
</svg>
